/usr/bin/start-video-rec.sh: line 70: kill: (881) - No such process
ffmpeg version 2.8.15-0ubuntu0.16.04.1 Copyright (c) 2000-2018 the FFmpeg developers
  built with gcc 5.4.0 (Ubuntu 5.4.0-6ubuntu1~16.04.10) 20160609
  configuration: --prefix=/usr --extra-version=0ubuntu0.16.04.1 --build-suffix=-ffmpeg --toolchain=hardened --libdir=/usr/lib/x86_64-linux-gnu --incdir=/usr/include/x86_64-linux-gnu --cc=cc --cxx=g++ --enable-gpl --enable-shared --disable-stripping --disable-decoder=libopenjpeg --disable-decoder=libschroedinger --enable-avresample --enable-avisynth --enable-gnutls --enable-ladspa --enable-libass --enable-libbluray --enable-libbs2b --enable-libcaca --enable-libcdio --enable-libflite --enable-libfontconfig --enable-libfreetype --enable-libfribidi --enable-libgme --enable-libgsm --enable-libmodplug --enable-libmp3lame --enable-libopenjpeg --enable-libopus --enable-libpulse --enable-librtmp --enable-libschroedinger --enable-libshine --enable-libsnappy --enable-libsoxr --enable-libspeex --enable-libssh --enable-libtheora --enable-libtwolame --enable-libvorbis --enable-libvpx --enable-libwavpack --enable-libwebp --enable-libx265 --enable-libxvid --enable-libzvbi --enable-openal --enable-opengl --enable-x11grab --enable-libdc1394 --enable-libiec61883 --enable-libzmq --enable-frei0r --enable-libx264 --enable-libopencv
  libavutil      54. 31.100 / 54. 31.100
  libavcodec     56. 60.100 / 56. 60.100
  libavformat    56. 40.101 / 56. 40.101
  libavdevice    56.  4.100 / 56.  4.100
  libavfilter     5. 40.101 /  5. 40.101
  libavresample   2.  1.  0 /  2.  1.  0
  libswscale      3.  1.101 /  3.  1.101
  libswresample   1.  2.101 /  1.  2.101
  libpostproc    53.  3.100 / 53.  3.100
Input #0, matroska,webm, from '/home/seluser/videos/vid_chrome_or_firefox_40000.mkv':
  Metadata:
    ENCODER         : Lavf56.40.101
  Duration: 00:00:27.80, start: 0.000000, bitrate: 58 kb/s
    Stream #0:0: Video: h264 (Constrained Baseline), yuv420p, 1920x1080, SAR 1:1 DAR 16:9, 10 fps, 10 tbr, 1k tbn, 20 tbc (default)
    Metadata:
      ENCODER         : Lavc56.60.100 libx264
      DURATION        : 00:00:27.800000000
[libx264 @ 0x76b920] using SAR=1/1
[libx264 @ 0x76b920] using cpu capabilities: MMX2 SSE2Fast SSSE3 SSE4.2 AVX FMA3 AVX2 LZCNT BMI2
[libx264 @ 0x76b920] profile Constrained Baseline, level 4.0
[libx264 @ 0x76b920] 264 - core 148 r2643 5c65704 - H.264/MPEG-4 AVC codec - Copyleft 2003-2015 - http://www.videolan.org/x264.html - options: cabac=0 ref=1 deblock=0:0:0 analyse=0:0 me=dia subme=0 psy=1 psy_rd=1.00:0.00 mixed_ref=0 me_range=16 chroma_me=1 trellis=0 8x8dct=0 cqm=0 deadzone=21,11 fast_pskip=1 chroma_qp_offset=0 threads=3 lookahead_threads=1 sliced_threads=0 nr=0 decimate=1 interlaced=0 bluray_compat=0 constrained_intra=0 bframes=0 weightp=0 keyint=250 keyint_min=10 scenecut=0 intra_refresh=0 rc=crf mbtree=0 crf=23.0 qcomp=0.60 qpmin=0 qpmax=69 qpstep=4 ip_ratio=1.40 aq=0
Output #0, mp4, to '/home/seluser/videos/vid_chrome_or_firefox_40000.mp4':
  Metadata:
    encoder         : Lavf56.40.101
    Stream #0:0: Video: h264 (libx264) ([33][0][0][0] / 0x0021), yuv420p, 1920x1080 [SAR 1:1 DAR 16:9], q=-1--1, 10 fps, 10240 tbn, 10 tbc (default)
    Metadata:
      DURATION        : 00:00:27.800000000
      encoder         : Lavc56.60.100 libx264
Stream mapping:
  Stream #0:0 -> #0:0 (h264 (native) -> h264 (libx264))
Press [q] to stop, [?] for help
frame=   11 fps=0.0 q=9.0 size=      59kB time=00:00:00.70 bitrate= 692.5kbits/s dup=7 drop=0    
frame=   14 fps= 11 q=10.0 size=      76kB time=00:00:01.00 bitrate= 619.9kbits/s dup=9 drop=0    
frame=   18 fps=9.3 q=9.0 size=      78kB time=00:00:01.40 bitrate= 458.4kbits/s dup=12 drop=0    
frame=   24 fps=9.4 q=10.0 size=      85kB time=00:00:02.00 bitrate= 350.0kbits/s dup=16 drop=0    
frame=   30 fps=9.8 q=9.0 size=      89kB time=00:00:02.60 bitrate= 279.5kbits/s dup=20 drop=0    
frame=   32 fps=8.9 q=9.0 size=      89kB time=00:00:02.80 bitrate= 259.7kbits/s dup=20 drop=0    
frame=   36 fps=8.7 q=9.0 size=      89kB time=00:00:03.20 bitrate= 227.4kbits/s dup=22 drop=0    
frame=   41 fps=8.7 q=9.0 size=      89kB time=00:00:03.70 bitrate= 197.0kbits/s dup=24 drop=0    
frame=   45 fps=8.2 q=9.0 size=      89kB time=00:00:04.10 bitrate= 177.9kbits/s dup=24 drop=0    
frame=   51 fps=8.5 q=9.0 size=      89kB time=00:00:04.70 bitrate= 155.6kbits/s dup=26 drop=0    
frame=   56 fps=8.5 q=9.0 size=      89kB time=00:00:05.20 bitrate= 140.8kbits/s dup=28 drop=0    
frame=   62 fps=8.0 q=9.0 size=      90kB time=00:00:05.80 bitrate= 126.4kbits/s dup=32 drop=0    
frame=   68 fps=7.8 q=9.0 size=      90kB time=00:00:06.40 bitrate= 115.1kbits/s dup=36 drop=0    
frame=   71 fps=7.1 q=9.0 size=      90kB time=00:00:06.70 bitrate= 110.2kbits/s dup=37 drop=0    
frame=   75 fps=7.0 q=9.0 size=      90kB time=00:00:07.10 bitrate= 104.1kbits/s dup=37 drop=0    
frame=   87 fps=7.7 q=9.0 size=      91kB time=00:00:08.30 bitrate=  89.5kbits/s dup=41 drop=0    
frame=   96 fps=8.2 q=10.0 size=     102kB time=00:00:09.20 bitrate=  91.2kbits/s dup=41 drop=0    
frame=  100 fps=8.1 q=9.0 size=     103kB time=00:00:09.60 bitrate=  87.7kbits/s dup=41 drop=0    
frame=  107 fps=8.3 q=9.0 size=     103kB time=00:00:10.30 bitrate=  81.9kbits/s dup=41 drop=0    
frame=  111 fps=8.1 q=10.0 size=     110kB time=00:00:10.70 bitrate=  83.9kbits/s dup=42 drop=0    
frame=  115 fps=7.9 q=9.0 size=     110kB time=00:00:11.10 bitrate=  81.4kbits/s dup=42 drop=0    
frame=  119 fps=7.9 q=9.0 size=     110kB time=00:00:11.50 bitrate=  78.6kbits/s dup=42 drop=0    
frame=  122 fps=7.7 q=9.0 size=     111kB time=00:00:11.80 bitrate=  76.8kbits/s dup=42 drop=0    
frame=  127 fps=7.7 q=9.0 size=     112kB time=00:00:12.30 bitrate=  74.4kbits/s dup=42 drop=0    
frame=  129 fps=7.6 q=9.0 size=     112kB time=00:00:12.50 bitrate=  73.2kbits/s dup=42 drop=0    
frame=  133 fps=7.6 q=10.0 size=     112kB time=00:00:12.90 bitrate=  71.1kbits/s dup=42 drop=0    
frame=  137 fps=7.5 q=10.0 size=     118kB time=00:00:13.30 bitrate=  73.0kbits/s dup=42 drop=0    
frame=  141 fps=7.4 q=9.0 size=     119kB time=00:00:13.70 bitrate=  71.2kbits/s dup=42 drop=0    
frame=  141 fps=7.3 q=-1.0 Lsize=     121kB time=00:00:14.10 bitrate=  70.0kbits/s dup=42 drop=0    
video:119kB audio:0kB subtitle:0kB other streams:0kB global headers:0kB muxing overhead: 1.132249%
[libx264 @ 0x76b920] frame I:1     Avg QP:20.00  size: 28694
[libx264 @ 0x76b920] frame P:140   Avg QP: 9.38  size:   663
[libx264 @ 0x76b920] mb I  I16..4: 100.0%  0.0%  0.0%
[libx264 @ 0x76b920] mb P  I16..4:  0.9%  0.0%  0.0%  P16..4:  0.4%  0.0%  0.0%  0.0%  0.0%    skip:98.7%
[libx264 @ 0x76b920] coded y,uvDC,uvAC intra: 4.7% 4.2% 3.8% inter: 0.1% 0.2% 0.1%
[libx264 @ 0x76b920] i16 v,h,dc,p: 85% 15%  0%  0%
[libx264 @ 0x76b920] i8c dc,h,v,p: 90%  8%  1%  0%
[libx264 @ 0x76b920] kb/s:68.91
Exiting normally, received signal 15.
